<?xml version="1.0" standalone="no"?>
<!DOCTYPE svg PUBLIC "-//W3C//DTD SVG 20010904//EN"
 "http://www.w3.org/TR/2001/REC-SVG-20010904/DTD/svg10.dtd">
<svg version="1.0" xmlns="http://www.w3.org/2000/svg"
 width="2000.000000pt" height="1972.000000pt" viewBox="0 0 2000.000000 1972.000000" 
 preserveAspectRatio="xMidYMid meet">

<g transform="translate(0.000000,1972.000000) scale(0.100000,-0.100000)"
fill="#187325" stroke="none">
<path d="M9615 18592 l-140 -3 -384 -1100 c-212 -605 -387 -1102 -390 -1104
-3 -1 -165 460 -360 1026 -195 566 -357 1029 -360 1029 -3 0 -132 -43 -287
-96 l-280 -97 59 -171 c178 -518 211 -616 207 -619 -9 -7 -771 -267 -783 -267
-7 0 -70 169 -146 390 -74 215 -136 390 -138 390 -20 0 -563 -195 -563 -202 0
-13 740 -2161 746 -2168 3 -2 40 7 82 22 42 15 170 59 283 98 l205 71 -148
431 c-82 238 -145 435 -141 439 10 9 765 269 781 269 7 0 12 -2 12 -4 0 -7
291 -851 295 -855 2 -2 136 42 297 97 l293 100 287 7 c253 7 288 9 292 24 39
132 128 416 131 420 8 7 769 19 777 12 4 -4 41 -101 81 -216 l74 -210 303 3
c167 1 306 -1 309 -6 6 -8 551 -176 555 -170 1 2 90 290 197 640 107 350 197
634 200 630 3 -4 104 -349 224 -767 120 -418 219 -761 220 -763 4 -5 556 -172
569 -172 15 0 682 2188 670 2199 -15 14 -539 170 -546 163 -3 -4 -91 -284
-194 -622 -102 -338 -190 -618 -193 -622 -4 -4 -108 334 -231 751 l-225 760
-282 86 c-156 47 -286 84 -291 81 -4 -2 -149 -468 -322 -1035 -173 -567 -317
-1031 -321 -1031 -4 0 -549 1390 -827 2108 l-24 62 -216 -2 c-120 -1 -280 -4
-357 -6z m354 -997 l129 -350 -57 -6 c-31 -4 -145 -7 -255 -8 -155 -1 -197 2
-194 12 3 6 58 172 123 367 65 195 120 351 122 345 2 -5 61 -167 132 -360z"/>
<path d="M5345 17273 c-58 -7 -181 -35 -240 -55 -197 -66 -473 -255 -616 -421
-398 -460 -393 -1069 11 -1562 199 -242 435 -385 713 -430 158 -26 334 -13
492 35 424 131 849 528 984 922 l19 55 -259 123 c-143 68 -261 121 -262 119
-2 -2 -16 -37 -31 -77 -74 -193 -260 -393 -457 -492 -99 -50 -178 -70 -277
-70 -190 0 -359 103 -489 297 -177 267 -152 542 69 755 161 155 373 246 550
236 43 -3 78 -1 78 3 0 20 -41 488 -46 527 l-5 42 -102 -1 c-56 -1 -115 -4
-132 -6z"/>
<path d="M14495 17139 c-374 -55 -690 -290 -884 -660 -228 -433 -154 -931 197
-1334 175 -201 459 -384 759 -489 112 -39 294 -80 304 -68 18 20 689 985 687
987 -15 13 -782 547 -792 551 -7 3 -63 -67 -140 -178 -71 -100 -130 -188 -133
-194 -2 -6 77 -69 177 -139 118 -82 180 -132 176 -140 -7 -20 -186 -274 -197
-281 -14 -8 -164 65 -238 115 -119 81 -230 211 -287 336 -35 76 -57 204 -49
285 27 274 262 560 512 625 301 79 699 -137 884 -479 22 -42 43 -76 46 -76 4
0 454 230 462 236 10 8 -98 205 -152 278 -288 389 -756 640 -1182 635 -49 -1
-117 -5 -150 -10z"/>
<path d="M3180 15638 c-113 -144 -211 -271 -218 -282 -11 -19 4 -61 132 -376
79 -195 144 -356 143 -356 -1 -1 -162 22 -357 52 -195 29 -367 54 -382 54 -24
0 -55 -36 -248 -282 l-220 -283 32 -6 c18 -4 313 -42 654 -85 l621 -78 221
-575 c122 -316 220 -576 219 -577 -1 -1 -83 31 -182 71 -125 51 -182 70 -186
62 -4 -7 -93 -226 -199 -487 -106 -261 -194 -480 -196 -486 -3 -6 -78 19 -192
64 -103 42 -188 76 -190 77 -1 1 70 181 158 400 89 219 162 402 163 408 2 9
-432 192 -438 185 -2 -2 -76 -183 -165 -403 -89 -220 -164 -402 -166 -404 -5
-6 -334 131 -334 139 0 3 88 224 195 490 114 282 191 486 185 490 -21 13 -471
193 -473 189 -8 -10 -617 -1526 -617 -1535 0 -8 2062 -846 2116 -860 17 -4 57
88 329 762 171 422 310 774 311 784 1 10 82 121 181 247 98 126 182 234 186
239 3 6 -65 178 -152 383 -128 300 -155 371 -141 371 10 0 190 -27 401 -60
306 -48 386 -58 396 -48 24 25 441 563 438 566 -1 2 -304 40 -671 86 l-669 82
-237 615 c-131 338 -239 617 -240 622 -2 4 -95 -111 -208 -255z"/>
<path d="M15815 15039 c-490 -396 -890 -726 -889 -732 1 -14 1030 -1288 1048
-1299 7 -4 65 -133 131 -287 73 -175 123 -281 132 -281 27 0 786 -80 790 -83
1 -2 -109 -148 -246 -324 l-248 -320 139 -329 c77 -181 142 -332 146 -336 5
-5 739 990 793 1074 4 7 251 -24 664 -81 362 -50 659 -90 660 -89 5 7 -267
634 -279 643 -7 6 -181 30 -385 55 -260 31 -370 47 -367 55 2 7 94 128 203
271 109 142 211 276 227 296 l28 37 -143 336 c-78 184 -143 334 -144 333 -1
-2 -177 -241 -389 -533 -360 -493 -389 -530 -414 -527 -15 2 -283 39 -596 83
-313 43 -576 79 -583 79 -8 0 -13 4 -11 9 2 5 68 62 148 126 80 65 145 121
145 125 0 3 -148 190 -330 414 -181 224 -330 412 -330 417 0 15 308 260 316
252 4 -5 127 -156 274 -338 147 -181 270 -331 273 -332 10 -3 366 291 365 300
-1 5 -124 159 -273 344 -224 276 -270 337 -259 347 8 7 72 59 142 116 108 87
130 101 141 89 7 -8 138 -169 291 -359 153 -190 298 -369 322 -397 l44 -53
200 162 c109 88 199 163 199 167 0 6 -998 1243 -1028 1274 -17 16 -63 -20
-907 -704z"/>
<path d="M12040 13070 l0 -470 -3450 0 -3450 0 0 -635 0 -635 3450 0 3450 0 2
-475 3 -475 1359 785 c748 431 1363 788 1367 792 7 7 -2708 1583 -2725 1583
-3 0 -6 -211 -6 -470z"/>
<path d="M1811 8912 c-1 -41 -50 -172 -85 -225 -74 -115 -200 -207 -329 -240
-33 -9 -61 -18 -63 -20 -3 -2 18 -7 45 -11 27 -4 87 -25 133 -48 142 -71 254
-208 290 -353 14 -59 28 -80 28 -42 0 38 42 148 79 206 74 114 221 216 354
243 l58 12 -63 13 c-204 41 -373 205 -428 415 -10 40 -19 63 -19 50z"/>
<path d="M18163 8868 c-25 -133 -123 -274 -244 -351 -51 -32 -137 -67 -204
-83 -27 -6 -24 -8 32 -20 203 -42 375 -215 424 -424 l12 -55 13 62 c41 202
223 383 425 425 l60 12 -63 13 c-203 41 -373 207 -426 417 l-17 67 -12 -63z"/>
<path d="M7680 8346 c-107 -62 -708 -409 -1335 -771 -627 -361 -1155 -666
-1174 -678 l-33 -20 23 -13 c14 -7 629 -361 1369 -788 l1345 -777 3 471 2 470
3455 0 3455 0 0 635 0 635 -3455 0 -3455 0 -2 474 -3 475 -195 -113z"/>
<path d="M2485 7246 c-82 -29 -310 -108 -506 -175 l-355 -122 103 -302 c57
-166 105 -307 108 -314 3 -9 16 -8 52 4 26 9 49 17 50 17 1 1 -37 117 -86 256
-49 140 -86 258 -82 262 7 7 383 140 386 135 1 -1 35 -99 75 -217 40 -118 76
-218 79 -222 9 -10 82 13 87 27 3 6 -29 109 -70 229 l-75 217 27 10 c15 6 91
32 169 59 l142 49 11 -32 c6 -18 45 -131 87 -252 41 -121 77 -221 78 -223 6
-7 87 22 91 33 6 14 -200 608 -212 611 -5 2 -76 -21 -159 -50z"/>
<path d="M17335 7288 c-17 -44 -195 -600 -195 -607 0 -5 21 -16 48 -24 282
-91 960 -311 969 -314 14 -5 218 616 206 627 -11 10 -83 33 -88 28 -3 -2 -41
-116 -85 -253 -45 -137 -83 -252 -86 -256 -4 -7 -373 108 -387 120 -4 4 24
104 63 223 38 119 70 220 70 225 0 13 -81 37 -90 26 -4 -4 -38 -100 -74 -213
-37 -113 -68 -210 -71 -217 -2 -7 -59 6 -170 42 -92 30 -168 55 -170 57 -2 2
34 118 80 258 l83 255 -26 11 c-54 23 -72 26 -77 12z"/>
<path d="M17042 6360 c-85 -66 -162 -187 -201 -313 -91 -298 54 -584 356 -697
317 -118 651 77 753 440 22 82 36 209 23 225 -4 6 -102 57 -218 114 -143 70
-211 99 -214 90 -2 -7 -37 -79 -77 -161 -41 -82 -74 -152 -74 -156 0 -5 20
-18 44 -29 l44 -22 53 114 c30 63 60 115 67 115 7 0 71 -29 142 -65 127 -64
130 -66 130 -98 -1 -56 -20 -120 -62 -206 -114 -230 -324 -330 -542 -257 -96
33 -200 98 -249 158 -150 183 -121 444 70 636 40 40 73 75 73 78 0 13 -47 74
-57 74 -6 0 -34 -18 -61 -40z"/>
<path d="M2469 6185 c-300 -18 -553 -35 -562 -36 -15 -4 -14 -10 8 -56 l24
-53 58 1 c32 0 100 4 151 7 59 5 97 3 102 -3 9 -11 210 -442 210 -450 0 -3
-47 -55 -104 -117 l-104 -112 26 -53 c14 -29 29 -53 33 -53 7 0 768 824 782
847 4 7 -2 35 -14 63 -17 39 -26 50 -43 49 -11 -1 -267 -16 -567 -34z m445
-107 c-156 -176 -369 -397 -375 -391 -11 11 -181 375 -177 378 4 4 422 32 502
34 l69 1 -19 -22z"/>
<path d="M3190 5526 c-89 -24 -166 -90 -190 -162 -20 -60 -7 -202 30 -324 21
-69 33 -136 37 -195 5 -83 3 -93 -19 -125 -27 -41 -98 -80 -146 -80 -137 0
-302 236 -302 432 l0 48 -55 0 -55 0 0 -47 c0 -112 60 -269 143 -379 116 -152
257 -196 401 -125 78 38 121 86 143 160 20 71 13 143 -33 302 -20 71 -38 159
-41 206 -5 72 -3 85 16 116 26 42 92 77 146 77 84 0 173 -72 229 -185 31 -64
60 -188 52 -221 -6 -21 -2 -22 49 -26 l55 -3 0 60 c-1 272 -251 529 -460 471z"/>
<path d="M16528 5436 c-16 -24 -28 -45 -28 -48 0 -2 160 -112 356 -244 l356
-239 -58 -6 c-32 -4 -256 -10 -498 -13 -243 -4 -457 -9 -476 -12 -28 -4 -41
-14 -62 -46 l-26 -41 206 -140 c114 -77 316 -213 449 -303 l243 -164 30 41
c16 23 30 45 30 50 0 4 -163 117 -361 251 -271 182 -356 244 -338 245 13 2
255 7 537 12 567 10 515 3 556 72 l15 25 -445 300 c-244 164 -448 300 -452
301 -4 2 -19 -17 -34 -41z"/>
<path d="M3660 4623 l-114 -340 -183 -148 c-101 -81 -183 -152 -183 -159 1 -6
16 -28 33 -48 l33 -37 184 149 c101 82 193 151 204 153 12 3 173 22 358 43
373 42 351 34 286 106 l-33 36 -265 -34 c-146 -19 -274 -33 -286 -32 -19 3
-15 19 72 273 102 297 99 271 36 345 l-29 34 -113 -341z"/>
<path d="M15691 4319 l-34 -40 259 -525 258 -525 42 48 42 48 -69 136 -68 136
171 191 171 190 96 -35 c53 -20 117 -43 144 -51 l47 -16 45 44 c33 33 42 46
32 52 -21 11 -1085 388 -1094 387 -4 0 -23 -18 -42 -40z m400 -203 c145 -52
262 -98 260 -102 -5 -12 -271 -308 -280 -312 -3 -1 -63 113 -134 253 -70 140
-123 255 -119 255 5 0 127 -42 273 -94z"/>
<path d="M15241 3853 l-40 -38 145 -165 c79 -91 144 -168 144 -171 0 -4 -100
-94 -221 -200 -214 -186 -222 -192 -238 -173 -70 86 -274 314 -281 314 -15 0
-81 -62 -78 -72 2 -5 161 -190 353 -412 l350 -403 43 35 c23 19 41 39 40 43
-2 5 -70 86 -153 181 -82 94 -158 182 -167 194 -18 22 -16 23 202 214 122 105
224 190 229 188 5 -2 84 -90 176 -195 l167 -193 39 31 c21 17 41 34 43 38 5 8
-689 813 -705 819 -5 2 -26 -14 -48 -35z"/>
<path d="M4548 3764 c-89 -21 -171 -68 -248 -140 -118 -112 -178 -221 -200
-362 -37 -235 134 -495 392 -599 68 -28 167 -48 178 -36 4 4 12 29 17 54 l10
45 -70 12 c-193 34 -374 208 -408 394 -24 129 25 260 144 384 152 161 330 196
511 101 114 -60 220 -181 245 -281 l11 -44 51 13 c28 8 53 16 56 18 7 8 -34
115 -63 165 -40 69 -151 174 -230 218 -123 69 -266 90 -396 58z"/>
<path d="M5214 2997 c-109 -160 -211 -321 -228 -357 -29 -60 -31 -73 -31 -170
0 -95 3 -110 29 -163 60 -123 227 -240 361 -253 76 -8 171 15 237 57 76 49
131 118 336 422 l192 286 -44 30 c-25 17 -47 31 -50 31 -3 0 -91 -128 -197
-285 -106 -157 -208 -304 -227 -325 -119 -140 -304 -137 -448 7 -91 90 -108
206 -49 324 15 30 115 182 220 339 l193 285 -49 32 -48 33 -197 -293z"/>
<path d="M14505 3189 c-229 -27 -444 -209 -500 -424 -31 -121 -14 -268 45
-384 131 -260 377 -389 623 -325 159 41 337 176 408 310 47 87 47 90 -9 118
l-49 25 -22 -54 c-50 -120 -183 -234 -323 -276 -98 -30 -212 -24 -294 16 -121
58 -245 226 -274 370 -33 162 40 324 194 430 72 49 173 85 241 85 51 0 55 2
55 24 0 13 3 37 6 53 5 26 3 31 -18 34 -12 3 -50 1 -83 -2z"/>
<path d="M13659 2699 c-38 -19 -58 -36 -62 -51 -3 -13 -23 -132 -43 -265 -21
-134 -40 -243 -43 -243 -4 0 -107 61 -230 134 l-224 135 -60 -30 -59 -30 94
-58 c51 -31 171 -104 266 -160 94 -57 172 -109 172 -115 1 -6 -16 -151 -37
-323 -20 -172 -34 -315 -31 -318 3 -4 29 5 57 19 59 30 49 -3 92 336 16 134
31 246 33 247 2 2 115 -60 251 -138 l249 -141 57 28 c32 15 56 30 54 34 -3 4
-133 80 -289 170 -274 155 -285 163 -280 188 8 47 92 607 90 609 0 0 -26 -12
-57 -28z"/>
<path d="M6290 2669 c-57 -111 -450 -922 -450 -928 0 -7 84 -51 96 -51 3 0 50
92 104 205 55 113 101 205 103 205 4 0 159 -70 164 -74 1 -1 25 -130 53 -286
28 -157 52 -285 53 -285 1 0 28 -13 61 -28 32 -15 60 -27 61 -25 2 2 -21 129
-49 283 -29 154 -52 281 -51 283 1 1 26 -3 55 -9 80 -17 168 -7 231 27 60 33
99 82 130 163 27 71 23 165 -10 230 -44 85 -99 125 -319 232 -112 54 -206 99
-208 99 -2 0 -13 -18 -24 -41z m232 -173 c90 -43 151 -79 176 -104 83 -83 73
-216 -22 -300 -74 -65 -155 -57 -342 33 -76 36 -139 67 -141 69 -7 7 176 378
184 373 4 -2 70 -34 145 -71z"/>
<path d="M7147 2268 c-70 -201 -337 -980 -337 -983 0 -2 23 -11 51 -20 37 -13
53 -14 58 -6 4 6 38 103 77 216 49 146 73 205 84 204 8 0 49 -12 90 -27 l74
-27 81 -260 c44 -143 83 -267 87 -276 5 -14 127 -65 134 -56 1 2 -14 51 -130
417 l-42 135 90 0 c74 0 100 4 141 23 63 29 100 64 130 122 64 126 51 250 -37
346 -59 64 -98 84 -318 160 -107 37 -200 69 -206 71 -7 2 -18 -15 -27 -39z
m224 -137 c153 -53 181 -66 219 -98 140 -117 53 -352 -130 -353 -53 0 -84 8
-242 62 l-116 40 66 194 c37 107 72 194 78 194 7 0 63 -18 125 -39z"/>
<path d="M12500 2194 c-162 -56 -298 -104 -303 -106 -6 -2 336 -1015 347
-1025 1 -2 615 207 623 212 6 4 -30 95 -37 95 -5 0 -120 -38 -256 -85 -136
-47 -251 -82 -255 -78 -5 5 -37 93 -72 196 -63 184 -64 189 -43 196 11 4 111
38 221 76 110 37 202 70 204 72 6 4 -21 83 -30 88 -3 3 -105 -29 -224 -70
-120 -42 -221 -72 -225 -68 -4 4 -32 79 -61 166 -39 113 -51 159 -42 165 6 4
122 45 256 91 l245 84 -16 45 c-9 25 -22 46 -27 48 -6 1 -143 -45 -305 -102z"/>
<path d="M7952 1484 c-57 -290 -99 -530 -95 -534 4 -4 29 -11 55 -14 39 -6 47
-4 51 11 3 10 41 201 84 425 43 225 81 408 84 408 3 0 101 -217 218 -482 118
-266 215 -485 217 -487 6 -6 97 -21 102 -16 9 9 209 1050 203 1057 -3 4 -29
10 -56 13 l-51 7 -78 -409 c-43 -224 -82 -414 -85 -421 -9 -15 6 -46 -236 494
-109 242 -202 444 -209 451 -6 6 -31 14 -56 18 l-46 7 -102 -528z"/>
<path d="M11641 1949 c-24 -5 -45 -10 -46 -11 -1 -2 -49 -121 -106 -265 -57
-145 -107 -263 -110 -263 -4 0 -91 93 -195 208 l-188 207 -54 -3 c-30 -1 -61
-6 -68 -10 -11 -6 50 -78 225 -269 156 -171 241 -272 245 -290 3 -15 22 -120
41 -233 20 -113 38 -206 40 -208 9 -9 97 12 102 24 3 8 -11 108 -32 222 -20
114 -37 218 -37 232 0 14 57 162 127 330 70 168 130 313 132 323 6 19 -5 20
-76 6z"/>
<path d="M9109 1819 c-4 -19 -77 -1074 -74 -1078 2 -2 125 -12 272 -22 147
-10 293 -21 324 -24 53 -5 57 -4 63 17 3 13 6 38 6 56 0 32 -1 32 -47 33 -27
0 -149 8 -273 17 l-225 17 2 30 c1 17 7 109 14 205 6 96 12 176 14 178 1 2 98
-4 215 -13 285 -20 256 -24 263 33 3 26 4 48 4 49 -1 0 -108 9 -237 18 -129 9
-236 18 -238 19 -5 6 21 341 27 348 5 6 292 -10 479 -27 l62 -6 0 54 0 53
-257 18 c-142 9 -288 20 -325 23 -38 3 -68 4 -69 2z"/>
<path d="M10430 1814 c-196 -33 -307 -95 -397 -222 -68 -95 -95 -175 -101
-303 -13 -296 127 -509 383 -585 141 -42 364 -13 496 64 83 49 88 58 55 111
l-27 42 -32 -24 c-88 -67 -184 -97 -312 -97 -144 0 -240 35 -320 115 -143 143
-169 435 -54 609 113 169 387 234 582 136 l58 -29 29 47 29 47 -37 23 c-77 47
-261 82 -352 66z"/>
</g>
</svg>
